<?xml version="1.0" encoding="UTF-8" standalone="no"?>
<!DOCTYPE svg PUBLIC "-//W3C//DTD SVG 1.1//EN"
 "http://www.w3.org/Graphics/SVG/1.1/DTD/svg11.dtd">
<!-- Generated by graphviz version 2.40.1 (20161225.0304)
 -->
<!-- Title: models_diagram Pages: 1 -->
<svg width="3262pt" height="205pt"
 viewBox="0.00 0.00 3262.34 205.00" xmlns="http://www.w3.org/2000/svg" xmlns:xlink="http://www.w3.org/1999/xlink">
<g id="graph0" class="graph" transform="scale(1 1) rotate(0) translate(4 201)">
<title>models_diagram</title>
<polygon fill="transparent" stroke="transparent" points="-4,4 -4,-201 3258.3431,-201 3258.3431,4 -4,4"/>
<!-- _diagram_info -->
<g id="node1" class="node">
<title>_diagram_info</title>
<text text-anchor="start" x="8" y="-123.1" font-family="Times,serif" font-size="13.00" fill="#000000">Models diagram</text>
<text text-anchor="start" x="8" y="-109.1" font-family="Times,serif" font-size="13.00" fill="#000000">Date: Jul 05 2020 &#45; 05:44</text>
<text text-anchor="start" x="8" y="-95.1" font-family="Times,serif" font-size="13.00" fill="#000000">Migration version: 20200705095607</text>
<text text-anchor="start" x="8" y="-81.1" font-family="Times,serif" font-size="13.00" fill="#000000">Generated by RailRoady 1.5.3</text>
<text text-anchor="start" x="8" y="-67.1" font-family="Times,serif" font-size="13.00" fill="#000000">http://railroady.prestonlee.com</text>
</g>
<!-- Service -->
<g id="node2" class="node">
<title>Service</title>
<path fill="none" stroke="#000000" d="M244,-30.5C244,-30.5 480,-30.5 480,-30.5 486,-30.5 492,-36.5 492,-42.5 492,-42.5 492,-154.5 492,-154.5 492,-160.5 486,-166.5 480,-166.5 480,-166.5 244,-166.5 244,-166.5 238,-166.5 232,-160.5 232,-154.5 232,-154.5 232,-42.5 232,-42.5 232,-36.5 238,-30.5 244,-30.5"/>
<text text-anchor="middle" x="362" y="-151.3" font-family="Times,serif" font-size="14.00" fill="#000000">Service</text>
<polyline fill="none" stroke="#000000" points="232,-143.5 492,-143.5 "/>
<text text-anchor="start" x="240" y="-128.3" font-family="Times,serif" font-size="14.00" fill="#000000">id :bigint</text>
<text text-anchor="start" x="240" y="-113.3" font-family="Times,serif" font-size="14.00" fill="#000000">customer_info :character varying</text>
<text text-anchor="start" x="240" y="-98.3" font-family="Times,serif" font-size="14.00" fill="#000000">service_name :character varying</text>
<text text-anchor="start" x="240" y="-83.3" font-family="Times,serif" font-size="14.00" fill="#000000">service_description :character varying</text>
<text text-anchor="start" x="240" y="-68.3" font-family="Times,serif" font-size="14.00" fill="#000000">price :double precision</text>
<text text-anchor="start" x="240" y="-53.3" font-family="Times,serif" font-size="14.00" fill="#000000">created_at :timestamp(6) without time zone</text>
<text text-anchor="start" x="240" y="-38.3" font-family="Times,serif" font-size="14.00" fill="#000000">updated_at :timestamp(6) without time zone</text>
</g>
<!-- Job -->
<g id="node3" class="node">
<title>Job</title>
<path fill="none" stroke="#000000" d="M522,-45.5C522,-45.5 758,-45.5 758,-45.5 764,-45.5 770,-51.5 770,-57.5 770,-57.5 770,-139.5 770,-139.5 770,-145.5 764,-151.5 758,-151.5 758,-151.5 522,-151.5 522,-151.5 516,-151.5 510,-145.5 510,-139.5 510,-139.5 510,-57.5 510,-57.5 510,-51.5 516,-45.5 522,-45.5"/>
<text text-anchor="middle" x="640" y="-136.3" font-family="Times,serif" font-size="14.00" fill="#000000">Job</text>
<polyline fill="none" stroke="#000000" points="510,-128.5 770,-128.5 "/>
<text text-anchor="start" x="518" y="-113.3" font-family="Times,serif" font-size="14.00" fill="#000000">id :bigint</text>
<text text-anchor="start" x="518" y="-98.3" font-family="Times,serif" font-size="14.00" fill="#000000">services_id :bigint</text>
<text text-anchor="start" x="518" y="-83.3" font-family="Times,serif" font-size="14.00" fill="#000000">job_type :integer</text>
<text text-anchor="start" x="518" y="-68.3" font-family="Times,serif" font-size="14.00" fill="#000000">created_at :timestamp(6) without time zone</text>
<text text-anchor="start" x="518" y="-53.3" font-family="Times,serif" font-size="14.00" fill="#000000">updated_at :timestamp(6) without time zone</text>
</g>
<!-- Insurance -->
<g id="node4" class="node">
<title>Insurance</title>
<path fill="none" stroke="#000000" d="M800,-45.5C800,-45.5 1070,-45.5 1070,-45.5 1076,-45.5 1082,-51.5 1082,-57.5 1082,-57.5 1082,-139.5 1082,-139.5 1082,-145.5 1076,-151.5 1070,-151.5 1070,-151.5 800,-151.5 800,-151.5 794,-151.5 788,-145.5 788,-139.5 788,-139.5 788,-57.5 788,-57.5 788,-51.5 794,-45.5 800,-45.5"/>
<text text-anchor="middle" x="935" y="-136.3" font-family="Times,serif" font-size="14.00" fill="#000000">Insurance</text>
<polyline fill="none" stroke="#000000" points="788,-128.5 1082,-128.5 "/>
<text text-anchor="start" x="796" y="-113.3" font-family="Times,serif" font-size="14.00" fill="#000000">id :bigint</text>
<text text-anchor="start" x="796" y="-98.3" font-family="Times,serif" font-size="14.00" fill="#000000">insurance_company_name :character varying</text>
<text text-anchor="start" x="796" y="-83.3" font-family="Times,serif" font-size="14.00" fill="#000000">insurance_company_description :character varying</text>
<text text-anchor="start" x="796" y="-68.3" font-family="Times,serif" font-size="14.00" fill="#000000">created_at :timestamp(6) without time zone</text>
<text text-anchor="start" x="796" y="-53.3" font-family="Times,serif" font-size="14.00" fill="#000000">updated_at :timestamp(6) without time zone</text>
</g>
<!-- SalesVehicle -->
<g id="node5" class="node">
<title>SalesVehicle</title>
<path fill="none" stroke="#000000" d="M1112,-23C1112,-23 1348,-23 1348,-23 1354,-23 1360,-29 1360,-35 1360,-35 1360,-162 1360,-162 1360,-168 1354,-174 1348,-174 1348,-174 1112,-174 1112,-174 1106,-174 1100,-168 1100,-162 1100,-162 1100,-35 1100,-35 1100,-29 1106,-23 1112,-23"/>
<text text-anchor="middle" x="1230" y="-158.8" font-family="Times,serif" font-size="14.00" fill="#000000">SalesVehicle</text>
<polyline fill="none" stroke="#000000" points="1100,-151 1360,-151 "/>
<text text-anchor="start" x="1108" y="-135.8" font-family="Times,serif" font-size="14.00" fill="#000000">id :bigint</text>
<text text-anchor="start" x="1108" y="-120.8" font-family="Times,serif" font-size="14.00" fill="#000000">name :character varying</text>
<text text-anchor="start" x="1108" y="-105.8" font-family="Times,serif" font-size="14.00" fill="#000000">brand :character varying</text>
<text text-anchor="start" x="1108" y="-90.8" font-family="Times,serif" font-size="14.00" fill="#000000">description :character varying</text>
<text text-anchor="start" x="1108" y="-75.8" font-family="Times,serif" font-size="14.00" fill="#000000">price :double precision</text>
<text text-anchor="start" x="1108" y="-60.8" font-family="Times,serif" font-size="14.00" fill="#000000">vehicle_types_id :bigint</text>
<text text-anchor="start" x="1108" y="-45.8" font-family="Times,serif" font-size="14.00" fill="#000000">created_at :timestamp(6) without time zone</text>
<text text-anchor="start" x="1108" y="-30.8" font-family="Times,serif" font-size="14.00" fill="#000000">updated_at :timestamp(6) without time zone</text>
</g>
<!-- JobsPart -->
<g id="node6" class="node">
<title>JobsPart</title>
<path fill="none" stroke="#000000" d="M1390,-45.5C1390,-45.5 1626,-45.5 1626,-45.5 1632,-45.5 1638,-51.5 1638,-57.5 1638,-57.5 1638,-139.5 1638,-139.5 1638,-145.5 1632,-151.5 1626,-151.5 1626,-151.5 1390,-151.5 1390,-151.5 1384,-151.5 1378,-145.5 1378,-139.5 1378,-139.5 1378,-57.5 1378,-57.5 1378,-51.5 1384,-45.5 1390,-45.5"/>
<text text-anchor="middle" x="1508" y="-136.3" font-family="Times,serif" font-size="14.00" fill="#000000">JobsPart</text>
<polyline fill="none" stroke="#000000" points="1378,-128.5 1638,-128.5 "/>
<text text-anchor="start" x="1386" y="-113.3" font-family="Times,serif" font-size="14.00" fill="#000000">id :bigint</text>
<text text-anchor="start" x="1386" y="-98.3" font-family="Times,serif" font-size="14.00" fill="#000000">jobs_id :bigint</text>
<text text-anchor="start" x="1386" y="-83.3" font-family="Times,serif" font-size="14.00" fill="#000000">parts_id :bigint</text>
<text text-anchor="start" x="1386" y="-68.3" font-family="Times,serif" font-size="14.00" fill="#000000">created_at :timestamp(6) without time zone</text>
<text text-anchor="start" x="1386" y="-53.3" font-family="Times,serif" font-size="14.00" fill="#000000">updated_at :timestamp(6) without time zone</text>
</g>
<!-- CustomerVehicle -->
<g id="node7" class="node">
<title>CustomerVehicle</title>
<path fill="none" stroke="#000000" d="M1668,-38C1668,-38 1904,-38 1904,-38 1910,-38 1916,-44 1916,-50 1916,-50 1916,-147 1916,-147 1916,-153 1910,-159 1904,-159 1904,-159 1668,-159 1668,-159 1662,-159 1656,-153 1656,-147 1656,-147 1656,-50 1656,-50 1656,-44 1662,-38 1668,-38"/>
<text text-anchor="middle" x="1786" y="-143.8" font-family="Times,serif" font-size="14.00" fill="#000000">CustomerVehicle</text>
<polyline fill="none" stroke="#000000" points="1656,-136 1916,-136 "/>
<text text-anchor="start" x="1664" y="-120.8" font-family="Times,serif" font-size="14.00" fill="#000000">id :bigint</text>
<text text-anchor="start" x="1664" y="-105.8" font-family="Times,serif" font-size="14.00" fill="#000000">customer_name :character varying</text>
<text text-anchor="start" x="1664" y="-90.8" font-family="Times,serif" font-size="14.00" fill="#000000">vehicle_plate :character varying</text>
<text text-anchor="start" x="1664" y="-75.8" font-family="Times,serif" font-size="14.00" fill="#000000">vehicle_description :character varying</text>
<text text-anchor="start" x="1664" y="-60.8" font-family="Times,serif" font-size="14.00" fill="#000000">created_at :timestamp(6) without time zone</text>
<text text-anchor="start" x="1664" y="-45.8" font-family="Times,serif" font-size="14.00" fill="#000000">updated_at :timestamp(6) without time zone</text>
</g>
<!-- CustomerVehicleInsurance -->
<g id="node8" class="node">
<title>CustomerVehicleInsurance</title>
<path fill="none" stroke="#000000" d="M1946,-38C1946,-38 2182,-38 2182,-38 2188,-38 2194,-44 2194,-50 2194,-50 2194,-147 2194,-147 2194,-153 2188,-159 2182,-159 2182,-159 1946,-159 1946,-159 1940,-159 1934,-153 1934,-147 1934,-147 1934,-50 1934,-50 1934,-44 1940,-38 1946,-38"/>
<text text-anchor="middle" x="2064" y="-143.8" font-family="Times,serif" font-size="14.00" fill="#000000">CustomerVehicleInsurance</text>
<polyline fill="none" stroke="#000000" points="1934,-136 2194,-136 "/>
<text text-anchor="start" x="1942" y="-120.8" font-family="Times,serif" font-size="14.00" fill="#000000">id :bigint</text>
<text text-anchor="start" x="1942" y="-105.8" font-family="Times,serif" font-size="14.00" fill="#000000">customer_name :character varying</text>
<text text-anchor="start" x="1942" y="-90.8" font-family="Times,serif" font-size="14.00" fill="#000000">customer_vehicle_id :bigint</text>
<text text-anchor="start" x="1942" y="-75.8" font-family="Times,serif" font-size="14.00" fill="#000000">insurances_id :bigint</text>
<text text-anchor="start" x="1942" y="-60.8" font-family="Times,serif" font-size="14.00" fill="#000000">created_at :timestamp(6) without time zone</text>
<text text-anchor="start" x="1942" y="-45.8" font-family="Times,serif" font-size="14.00" fill="#000000">updated_at :timestamp(6) without time zone</text>
</g>
<!-- VehicleType -->
<g id="node9" class="node">
<title>VehicleType</title>
<path fill="none" stroke="#000000" d="M2224,-45.5C2224,-45.5 2460,-45.5 2460,-45.5 2466,-45.5 2472,-51.5 2472,-57.5 2472,-57.5 2472,-139.5 2472,-139.5 2472,-145.5 2466,-151.5 2460,-151.5 2460,-151.5 2224,-151.5 2224,-151.5 2218,-151.5 2212,-145.5 2212,-139.5 2212,-139.5 2212,-57.5 2212,-57.5 2212,-51.5 2218,-45.5 2224,-45.5"/>
<text text-anchor="middle" x="2342" y="-136.3" font-family="Times,serif" font-size="14.00" fill="#000000">VehicleType</text>
<polyline fill="none" stroke="#000000" points="2212,-128.5 2472,-128.5 "/>
<text text-anchor="start" x="2220" y="-113.3" font-family="Times,serif" font-size="14.00" fill="#000000">id :bigint</text>
<text text-anchor="start" x="2220" y="-98.3" font-family="Times,serif" font-size="14.00" fill="#000000">name :character varying</text>
<text text-anchor="start" x="2220" y="-83.3" font-family="Times,serif" font-size="14.00" fill="#000000">description :character varying</text>
<text text-anchor="start" x="2220" y="-68.3" font-family="Times,serif" font-size="14.00" fill="#000000">created_at :timestamp(6) without time zone</text>
<text text-anchor="start" x="2220" y="-53.3" font-family="Times,serif" font-size="14.00" fill="#000000">updated_at :timestamp(6) without time zone</text>
</g>
<!-- Part -->
<g id="node10" class="node">
<title>Part</title>
<path fill="none" stroke="#000000" d="M2502,-45.5C2502,-45.5 2738,-45.5 2738,-45.5 2744,-45.5 2750,-51.5 2750,-57.5 2750,-57.5 2750,-139.5 2750,-139.5 2750,-145.5 2744,-151.5 2738,-151.5 2738,-151.5 2502,-151.5 2502,-151.5 2496,-151.5 2490,-145.5 2490,-139.5 2490,-139.5 2490,-57.5 2490,-57.5 2490,-51.5 2496,-45.5 2502,-45.5"/>
<text text-anchor="middle" x="2620" y="-136.3" font-family="Times,serif" font-size="14.00" fill="#000000">Part</text>
<polyline fill="none" stroke="#000000" points="2490,-128.5 2750,-128.5 "/>
<text text-anchor="start" x="2498" y="-113.3" font-family="Times,serif" font-size="14.00" fill="#000000">id :bigint</text>
<text text-anchor="start" x="2498" y="-98.3" font-family="Times,serif" font-size="14.00" fill="#000000">name :character varying</text>
<text text-anchor="start" x="2498" y="-83.3" font-family="Times,serif" font-size="14.00" fill="#000000">description :character varying</text>
<text text-anchor="start" x="2498" y="-68.3" font-family="Times,serif" font-size="14.00" fill="#000000">created_at :timestamp(6) without time zone</text>
<text text-anchor="start" x="2498" y="-53.3" font-family="Times,serif" font-size="14.00" fill="#000000">updated_at :timestamp(6) without time zone</text>
</g>
<!-- User -->
<g id="node11" class="node">
<title>User</title>
<path fill="none" stroke="#000000" d="M2780.5,-.5C2780.5,-.5 3069.5,-.5 3069.5,-.5 3075.5,-.5 3081.5,-6.5 3081.5,-12.5 3081.5,-12.5 3081.5,-184.5 3081.5,-184.5 3081.5,-190.5 3075.5,-196.5 3069.5,-196.5 3069.5,-196.5 2780.5,-196.5 2780.5,-196.5 2774.5,-196.5 2768.5,-190.5 2768.5,-184.5 2768.5,-184.5 2768.5,-12.5 2768.5,-12.5 2768.5,-6.5 2774.5,-.5 2780.5,-.5"/>
<text text-anchor="middle" x="2925" y="-181.3" font-family="Times,serif" font-size="14.00" fill="#000000">User</text>
<polyline fill="none" stroke="#000000" points="2768.5,-173.5 3081.5,-173.5 "/>
<text text-anchor="start" x="2776.5" y="-158.3" font-family="Times,serif" font-size="14.00" fill="#000000">id :bigint</text>
<text text-anchor="start" x="2776.5" y="-143.3" font-family="Times,serif" font-size="14.00" fill="#000000">email :character varying</text>
<text text-anchor="start" x="2776.5" y="-128.3" font-family="Times,serif" font-size="14.00" fill="#000000">encrypted_password :character varying</text>
<text text-anchor="start" x="2776.5" y="-113.3" font-family="Times,serif" font-size="14.00" fill="#000000">reset_password_token :character varying</text>
<text text-anchor="start" x="2776.5" y="-98.3" font-family="Times,serif" font-size="14.00" fill="#000000">reset_password_sent_at :timestamp without time zone</text>
<text text-anchor="start" x="2776.5" y="-83.3" font-family="Times,serif" font-size="14.00" fill="#000000">remember_created_at :timestamp without time zone</text>
<text text-anchor="start" x="2776.5" y="-68.3" font-family="Times,serif" font-size="14.00" fill="#000000">name :character varying</text>
<text text-anchor="start" x="2776.5" y="-53.3" font-family="Times,serif" font-size="14.00" fill="#000000">company :character varying</text>
<text text-anchor="start" x="2776.5" y="-38.3" font-family="Times,serif" font-size="14.00" fill="#000000">role :integer</text>
<text text-anchor="start" x="2776.5" y="-23.3" font-family="Times,serif" font-size="14.00" fill="#000000">created_at :timestamp(6) without time zone</text>
<text text-anchor="start" x="2776.5" y="-8.3" font-family="Times,serif" font-size="14.00" fill="#000000">updated_at :timestamp(6) without time zone</text>
</g>
<!-- ApplicationRecord -->
<g id="node12" class="node">
<title>ApplicationRecord</title>
<ellipse fill="none" stroke="#000000" cx="3177" cy="-98.5" rx="77.1866" ry="18"/>
<text text-anchor="middle" x="3177" y="-94.8" font-family="Times,serif" font-size="14.00" fill="#000000">ApplicationRecord</text>
</g>
</g>
</svg>
